<svg
 xmlns:svg="http://www.w3.org/2000/svg"
 xmlns="http://www.w3.org/2000/svg"
 xmlns:xlink="http://www.w3.org/1999/xlink"
 version="1.1"
 width="601"
 height="601"
 viewBox="-20 -20 601 601">
 <defs>
  <linearGradient id="LinearGradientWhite">
   <stop style="stop-color:white;stop-opacity:1" offset="0"/>
   <stop style="stop-color:#e6e6e6;stop-opacity:1" offset="0.75"/>
   <stop style="stop-color:#ccc;stop-opacity:1" offset="1"/>
  </linearGradient>
  <linearGradient id="LinearGradientBlack">
   <stop style="stop-color:#ccc;stop-opacity:1" offset="0"/>
   <stop style="stop-color:black;stop-opacity:1" offset="1"/>
  </linearGradient>
  <linearGradient id="LinearGradientShadow">
   <stop style="stop-color:black;stop-opacity:1;" offset="0"/>
   <stop style="stop-color:black;stop-opacity:0.5" offset="0.9"/>
   <stop style="stop-color:black;stop-opacity:0" offset="1"/>
  </linearGradient>
  <radialGradient id="RadialGradientWhite" xlink:href="#LinearGradientWhite" cx="0" cy="0" r="20" fx="-12" fy="-12" gradientUnits="userSpaceOnUse"/>
  <radialGradient id="RadialGradientBlack" xlink:href="#LinearGradientBlack" cx="0" cy="0" r="20" fx="-12" fy="-12" gradientUnits="userSpaceOnUse"/>
  <radialGradient id="RadialGradientShadow" xlink:href="#LinearGradientShadow" cx="2" cy="2" fx="2" fy="2" r="20" gradientUnits="userSpaceOnUse"/>
  <circle id="BlackShadow" r="20" cx="2" cy="2" style="fill:url(#RadialGradientShadow);stroke:none"/>
  <g id="Black01">
   <use xlink:href="#BlackShadow"/>
   <circle id="BlackTile" cx="0" cy="0" r="20" style="fill:url(#RadialGradientBlack);fill-opacity:1;stroke:none"/>
  </g>
  <g id="White01">
   <use xlink:href="#BlackShadow"/>
   <circle id="WhiteTile" cx="0" cy="0" r="20" style="fill:url(#RadialGradientWhite);fill-opacity:1;stroke:none"/>
  </g>
 </defs>
 <g>
  <rect id="rect3919" width="560" height="560" x="0" y="0" style="fill:#f4f0dc;stroke:black;stroke-width:2;stroke-miterlimit:4"/>
  <path id="Gridz" d="M 0,40 H 560 M 0,80 H 560 M 0,120 H 560 M 0,160 H 560 M 0,200 H 560 M 0,240 H 560 M 0,280 H 560 M 0,320 H 560 M 0,360 H 560 560 M 0,400 H 560 M 0,440 H 560 M 0,480 H 560 M 0,520 H 560" style="fill:none;stroke:black;stroke-width:2;stroke-linecap:butt;stroke-linejoin:miter;stroke-miterlimit:4"/>
  <use xlink:href="#Gridz" transform="matrix(0,-1,1,0,0,560)"/>
  <g id="pieces">
    <use xlink:href="#Black01" transform="translate(240,240)"/>
    <use xlink:href="#White01" transform="translate(0,0)"/>
  </g>
 </g>
 <g id="Texts" style="font-size:20px;font-style:normal;font-variant:normal;font-weight:bold;text-align:start;text-anchor:middle;stroke:none;font-family:Liberation Sans,sans-serif">
  <g style="fill:white" id="black-labels">
   <text x="228.38379" y="247.06543">15</text>
  </g>
  <g style="fill:black" id='white-labels'>
   <text x="0" y="6">123</text>
  </g>
 </g>
</svg>
